<?xml version="1.0" standalone="no"?>
<!DOCTYPE svg PUBLIC "-//W3C//DTD SVG 20010904//EN"
 "http://www.w3.org/TR/2001/REC-SVG-20010904/DTD/svg10.dtd">
<svg version="1.0" xmlns="http://www.w3.org/2000/svg"
 width="237.000000pt" height="256.000000pt" viewBox="0 0 237.000000 256.000000"
 preserveAspectRatio="xMidYMid meet">
<metadata>
Created by potrace 1.16, written by Peter Selinger 2001-2019
</metadata>
<g transform="translate(0.000000,256.000000) scale(0.100000,-0.100000)"
fill="#000000" stroke="none">
<path d="M842 1522 c-7 -2 -12 -12 -12 -22 0 -13 13 -21 49 -30 l48 -11 -4
-58 c-6 -77 11 -136 44 -159 23 -15 53 -17 218 -17 165 0 195 2 218 17 34 23
51 84 42 158 l-7 58 51 12 c38 9 51 17 51 30 0 25 -18 29 -62 14 -31 -11 -38
-11 -38 0 0 18 -508 18 -512 0 -2 -10 -11 -10 -39 0 -19 7 -40 11 -47 8z"/>
<path d="M855 1299 c-14 -21 6 -78 36 -103 48 -41 100 -50 277 -51 137 0 162
-2 163 -15 0 -8 2 -57 5 -109 2 -52 6 -96 8 -98 9 -9 74 27 94 51 32 41 37 80
15 123 -35 72 -48 76 -251 75 -186 -1 -265 10 -292 43 -6 8 -14 32 -17 55 -5
39 -24 53 -38 29z"/>
<path d="M935 1068 c12 -56 34 -92 76 -120 32 -23 50 -28 99 -28 49 0 66 5
103 29 46 32 61 56 72 115 l7 36 -182 0 -182 0 7 -32z"/>
<path d="M1143 193 c-270 -2 -463 -7 -463 -12 0 -9 1110 -21 1138 -13 6 2 12
10 12 18 0 11 -22 14 -112 12 -62 -2 -321 -4 -575 -5z"/>
</g>
</svg>
